<svg width="138" height="77" viewBox="0 0 138 77" fill="none" xmlns="http://www.w3.org/2000/svg">
<path fill-rule="evenodd" clip-rule="evenodd" d="M46.2854 58.5052L46.4686 57.109C48.4526 45.7134 53.9986 35.9013 61.6455 29.2154C64.0444 27.1185 61.6698 23.5356 59.3591 25.5401C50.4344 33.3322 44.1227 44.9896 42.313 58.4231C41.9158 61.4029 45.769 62.332 46.2854 58.5052ZM130.616 68.3943C105.686 68.3943 96.9317 42.6232 96.9317 39.2533C96.9317 36.6277 102.932 36.1991 108.386 37.1153C115.854 38.3807 122.163 42.962 126.295 50.6771C126.846 51.7038 131.081 60.7997 127.605 60.7997C123.77 60.7997 116.392 56.1363 112.846 50.6669C117.006 54.0856 121.126 56.6855 125.16 57.4863C120.899 45.4388 112.943 39.995 101.288 41.1449C106.346 55.0018 116.403 64.2467 129.17 64.2467H131.799C130.825 35.6113 110.553 12.7354 85.6897 12.7354C60.8223 12.7354 40.5475 35.6113 39.572 64.2467C62.8505 64.2467 86.1289 64.2467 109.405 64.2467C110.389 64.2467 111.188 65.1783 111.188 66.3205C111.188 67.4575 110.389 68.3917 109.405 68.3917C84.946 68.3917 60.4736 68.3917 36.0057 68.3917C35.988 67.7346 35.977 67.0725 35.977 66.4052C35.977 36.448 55.5787 11.8063 80.68 8.88037C80.3887 8.1104 80.2276 7.24803 80.2276 6.34972C80.2276 2.84891 82.6707 0 85.6897 0C88.6999 0 91.1452 2.84634 91.1452 6.34972C91.1452 7.25059 90.9819 8.11296 90.6906 8.88037C115.794 11.8037 135.396 36.4455 135.396 66.4052C135.396 67.0725 135.385 67.7372 135.363 68.3917H130.616V68.3943ZM85.6919 4.22203C84.6745 4.22203 83.858 5.17679 83.858 6.34972C83.858 7.52522 84.6745 8.48255 85.6919 8.48255C86.7005 8.48255 87.5192 7.52522 87.5192 6.34972C87.517 5.17679 86.7005 4.22203 85.6919 4.22203ZM14.5347 27.2366H41.6024C42.5778 27.2366 43.3833 28.1708 43.3833 29.3129C43.3833 30.4499 42.58 31.3867 41.6024 31.3867H14.5347C13.5482 31.3867 12.7449 30.4525 12.7449 29.3129C12.7471 28.1708 13.5482 27.2366 14.5347 27.2366ZM28.4183 50.2357H32.8542C33.8407 50.2357 34.6374 51.1699 34.6374 52.3095C34.6374 53.4516 33.8385 54.3807 32.8542 54.3807H28.4183C27.4407 54.3807 26.6373 53.4516 26.6373 52.3095C26.6396 51.1699 27.4407 50.2357 28.4183 50.2357ZM1.78318 27.2366H8.10155C9.077 27.2366 9.88252 28.1708 9.88252 29.3129C9.88252 30.4499 9.07921 31.3867 8.10155 31.3867H1.78318C0.803313 31.3867 0 30.4525 0 29.3129C0 28.1708 0.803313 27.2366 1.78318 27.2366ZM21.3937 61.734H31.497C32.4768 61.734 33.2757 62.6682 33.2757 63.8078C33.2757 64.9448 32.4768 65.8816 31.497 65.8816H21.3937C20.4183 65.8816 19.6106 64.9473 19.6106 63.8078C19.6128 62.6708 20.4117 61.734 21.3937 61.734ZM14.5347 50.2357H21.4975C22.4773 50.2357 23.2829 51.1699 23.2829 52.3095C23.2829 53.4516 22.4773 54.3807 21.4975 54.3807H14.5347C13.5482 54.3807 12.7449 53.4516 12.7449 52.3095C12.7471 51.1699 13.5482 50.2357 14.5347 50.2357ZM8.565 38.7374C7.58513 38.7374 6.77961 39.6691 6.77961 40.8061C6.77961 41.9559 7.58513 42.885 8.565 42.885H35.6327C36.617 42.885 37.4181 41.9559 37.4181 40.8061C37.4181 39.6716 36.6192 38.7374 35.6327 38.7374H8.565V38.7374ZM32.3687 72.855H136.219C137.194 72.855 138 73.7892 138 74.9288C138 76.0658 137.197 77 136.219 77H32.3687C31.391 77 30.5877 76.0658 30.5877 74.9288C30.5877 73.7892 31.391 72.855 32.3687 72.855ZM67.0701 25.2244C64.6314 26.7181 62.7158 22.7964 64.9713 21.3873C66.8913 20.1913 68.893 19.1493 70.9697 18.2972C72.9779 17.4605 74.664 21.5773 72.2563 22.5705C70.4687 23.3123 68.7319 24.2054 67.0701 25.2244Z" fill="#F25C04"/>
</svg>
