<svg width="150" height="54" viewBox="0 0 150 54" fill="none" xmlns="http://www.w3.org/2000/svg">
<path fill-rule="evenodd" clip-rule="evenodd" d="M20.973 32.795L21.056 32.251C21.955 27.811 24.468 23.988 27.933 21.383C29.02 20.566 27.944 19.17 26.897 19.951C22.853 22.987 19.993 27.529 19.173 32.763C18.993 33.924 20.739 34.286 20.973 32.795ZM59.185 36.648C47.889 36.648 43.922 26.607 43.922 25.294C43.922 24.271 46.641 24.104 49.112 24.461C52.496 24.954 55.355 26.739 57.227 29.745C57.477 30.145 59.396 33.689 57.821 33.689C56.083 33.689 52.74 31.872 51.133 29.741C53.018 31.073 54.885 32.086 56.713 32.398C54.782 27.704 51.177 25.583 45.896 26.031C48.188 31.43 52.745 35.032 58.53 35.032H59.721C59.28 23.875 50.094 14.962 38.828 14.962C27.56 14.962 18.373 23.875 17.931 35.032C28.479 35.032 39.027 35.032 49.574 35.032C50.02 35.032 50.382 35.395 50.382 35.84C50.382 36.283 50.02 36.647 49.574 36.647C38.491 36.647 27.402 36.647 16.315 36.647C16.307 36.391 16.302 36.133 16.302 35.873C16.302 24.201 25.184 14.6 36.558 13.46C36.426 13.16 36.353 12.824 36.353 12.474C36.353 11.11 37.46 10 38.828 10C40.192 10 41.3 11.109 41.3 12.474C41.3 12.825 41.226 13.161 41.094 13.46C52.469 14.599 61.351 24.2 61.351 35.873C61.351 36.133 61.346 36.392 61.336 36.647H59.185V36.648ZM38.829 11.645C38.368 11.645 37.998 12.017 37.998 12.474C37.998 12.932 38.368 13.305 38.829 13.305C39.286 13.305 39.657 12.932 39.657 12.474C39.656 12.017 39.286 11.645 38.829 11.645ZM6.586 20.612H18.851C19.293 20.612 19.658 20.976 19.658 21.421C19.658 21.864 19.294 22.229 18.851 22.229H6.586C6.139 22.229 5.775 21.865 5.775 21.421C5.776 20.976 6.139 20.612 6.586 20.612ZM12.877 29.573H14.887C15.334 29.573 15.695 29.937 15.695 30.381C15.695 30.826 15.333 31.188 14.887 31.188H12.877C12.434 31.188 12.07 30.826 12.07 30.381C12.071 29.937 12.434 29.573 12.877 29.573ZM0.808 20.612H3.671C4.113 20.612 4.478 20.976 4.478 21.421C4.478 21.864 4.114 22.229 3.671 22.229H0.808C0.364 22.229 0 21.865 0 21.421C0 20.976 0.364 20.612 0.808 20.612ZM9.694 34.053H14.272C14.716 34.053 15.078 34.417 15.078 34.861C15.078 35.304 14.716 35.669 14.272 35.669H9.694C9.252 35.669 8.886 35.305 8.886 34.861C8.887 34.418 9.249 34.053 9.694 34.053ZM6.586 29.573H9.741C10.185 29.573 10.55 29.937 10.55 30.381C10.55 30.826 10.185 31.188 9.741 31.188H6.586C6.139 31.188 5.775 30.826 5.775 30.381C5.776 29.937 6.139 29.573 6.586 29.573ZM3.881 25.093C3.437 25.093 3.072 25.456 3.072 25.899C3.072 26.347 3.437 26.709 3.881 26.709H16.146C16.592 26.709 16.955 26.347 16.955 25.899C16.955 25.457 16.593 25.093 16.146 25.093H3.881V25.093ZM14.667 38.386H61.724C62.166 38.386 62.531 38.75 62.531 39.194C62.531 39.637 62.167 40.001 61.724 40.001H14.667C14.224 40.001 13.86 39.637 13.86 39.194C13.86 38.75 14.224 38.386 14.667 38.386ZM30.391 19.828C29.286 20.41 28.418 18.882 29.44 18.333C30.31 17.867 31.217 17.461 32.158 17.129C33.068 16.803 33.832 18.407 32.741 18.794C31.931 19.083 31.144 19.431 30.391 19.828Z" fill="#F25C04"/>
<path d="M69.63 33.7C69.63 32.464 69.906 31.36 70.458 30.388C71.022 29.404 71.784 28.642 72.744 28.102C73.716 27.55 74.802 27.274 76.002 27.274C77.406 27.274 78.636 27.634 79.692 28.354C80.748 29.074 81.486 30.07 81.906 31.342H79.008C78.72 30.742 78.312 30.292 77.784 29.992C77.268 29.692 76.668 29.542 75.984 29.542C75.252 29.542 74.598 29.716 74.022 30.064C73.458 30.4 73.014 30.88 72.69 31.504C72.378 32.128 72.222 32.86 72.222 33.7C72.222 34.528 72.378 35.26 72.69 35.896C73.014 36.52 73.458 37.006 74.022 37.354C74.598 37.69 75.252 37.858 75.984 37.858C76.668 37.858 77.268 37.708 77.784 37.408C78.312 37.096 78.72 36.64 79.008 36.04H81.906C81.486 37.324 80.748 38.326 79.692 39.046C78.648 39.754 77.418 40.108 76.002 40.108C74.802 40.108 73.716 39.838 72.744 39.298C71.784 38.746 71.022 37.984 70.458 37.012C69.906 36.04 69.63 34.936 69.63 33.7ZM86.5784 31.486C86.9024 31.006 87.3464 30.616 87.9104 30.316C88.4864 30.016 89.1404 29.866 89.8724 29.866C90.7244 29.866 91.4924 30.076 92.1764 30.496C92.8724 30.916 93.4184 31.516 93.8144 32.296C94.2224 33.064 94.4264 33.958 94.4264 34.978C94.4264 35.998 94.2224 36.904 93.8144 37.696C93.4184 38.476 92.8724 39.082 92.1764 39.514C91.4924 39.946 90.7244 40.162 89.8724 40.162C89.1284 40.162 88.4744 40.018 87.9104 39.73C87.3584 39.43 86.9144 39.046 86.5784 38.578V40H84.0584V26.68H86.5784V31.486ZM91.8524 34.978C91.8524 34.378 91.7264 33.862 91.4744 33.43C91.2344 32.986 90.9104 32.65 90.5024 32.422C90.1064 32.194 89.6744 32.08 89.2064 32.08C88.7504 32.08 88.3184 32.2 87.9104 32.44C87.5144 32.668 87.1904 33.004 86.9384 33.448C86.6984 33.892 86.5784 34.414 86.5784 35.014C86.5784 35.614 86.6984 36.136 86.9384 36.58C87.1904 37.024 87.5144 37.366 87.9104 37.606C88.3184 37.834 88.7504 37.948 89.2064 37.948C89.6744 37.948 90.1064 37.828 90.5024 37.588C90.9104 37.348 91.2344 37.006 91.4744 36.562C91.7264 36.118 91.8524 35.59 91.8524 34.978ZM104.016 27.436V29.47H98.7776V32.692H102.792V34.69H98.7776V40H96.2576V27.436H104.016ZM110.231 40.162C109.271 40.162 108.407 39.952 107.639 39.532C106.871 39.1 106.265 38.494 105.821 37.714C105.389 36.934 105.173 36.034 105.173 35.014C105.173 33.994 105.395 33.094 105.839 32.314C106.295 31.534 106.913 30.934 107.693 30.514C108.473 30.082 109.343 29.866 110.303 29.866C111.263 29.866 112.133 30.082 112.913 30.514C113.693 30.934 114.305 31.534 114.749 32.314C115.205 33.094 115.433 33.994 115.433 35.014C115.433 36.034 115.199 36.934 114.731 37.714C114.275 38.494 113.651 39.1 112.859 39.532C112.079 39.952 111.203 40.162 110.231 40.162ZM110.231 37.966C110.687 37.966 111.113 37.858 111.509 37.642C111.917 37.414 112.241 37.078 112.481 36.634C112.721 36.19 112.841 35.65 112.841 35.014C112.841 34.066 112.589 33.34 112.085 32.836C111.593 32.32 110.987 32.062 110.267 32.062C109.547 32.062 108.941 32.32 108.449 32.836C107.969 33.34 107.729 34.066 107.729 35.014C107.729 35.962 107.963 36.694 108.431 37.21C108.911 37.714 109.511 37.966 110.231 37.966ZM121.709 40.162C120.749 40.162 119.885 39.952 119.117 39.532C118.349 39.1 117.743 38.494 117.299 37.714C116.867 36.934 116.651 36.034 116.651 35.014C116.651 33.994 116.873 33.094 117.317 32.314C117.773 31.534 118.391 30.934 119.171 30.514C119.951 30.082 120.821 29.866 121.781 29.866C122.741 29.866 123.611 30.082 124.391 30.514C125.171 30.934 125.783 31.534 126.227 32.314C126.683 33.094 126.911 33.994 126.911 35.014C126.911 36.034 126.677 36.934 126.209 37.714C125.753 38.494 125.129 39.1 124.337 39.532C123.557 39.952 122.681 40.162 121.709 40.162ZM121.709 37.966C122.165 37.966 122.591 37.858 122.987 37.642C123.395 37.414 123.719 37.078 123.959 36.634C124.199 36.19 124.319 35.65 124.319 35.014C124.319 34.066 124.067 33.34 123.563 32.836C123.071 32.32 122.465 32.062 121.745 32.062C121.025 32.062 120.419 32.32 119.927 32.836C119.447 33.34 119.207 34.066 119.207 35.014C119.207 35.962 119.441 36.694 119.909 37.21C120.389 37.714 120.989 37.966 121.709 37.966ZM128.112 34.978C128.112 33.97 128.31 33.076 128.706 32.296C129.114 31.516 129.666 30.916 130.362 30.496C131.058 30.076 131.832 29.866 132.684 29.866C133.332 29.866 133.95 30.01 134.538 30.298C135.126 30.574 135.594 30.946 135.942 31.414V26.68H138.498V40H135.942V38.524C135.63 39.016 135.192 39.412 134.628 39.712C134.064 40.012 133.41 40.162 132.666 40.162C131.826 40.162 131.058 39.946 130.362 39.514C129.666 39.082 129.114 38.476 128.706 37.696C128.31 36.904 128.112 35.998 128.112 34.978ZM135.96 35.014C135.96 34.402 135.84 33.88 135.6 33.448C135.36 33.004 135.036 32.668 134.628 32.44C134.22 32.2 133.782 32.08 133.314 32.08C132.846 32.08 132.414 32.194 132.018 32.422C131.622 32.65 131.298 32.986 131.046 33.43C130.806 33.862 130.686 34.378 130.686 34.978C130.686 35.578 130.806 36.106 131.046 36.562C131.298 37.006 131.622 37.348 132.018 37.588C132.426 37.828 132.858 37.948 133.314 37.948C133.782 37.948 134.22 37.834 134.628 37.606C135.036 37.366 135.36 37.03 135.6 36.598C135.84 36.154 135.96 35.626 135.96 35.014Z" fill="black"/>
<path d="M144.716 40.252C143.804 40.252 143.048 39.976 142.448 39.424C141.872 38.848 141.584 38.14 141.584 37.3C141.584 36.46 141.872 35.764 142.448 35.212C143.048 34.636 143.804 34.348 144.716 34.348C145.604 34.348 146.336 34.636 146.912 35.212C147.488 35.764 147.776 36.46 147.776 37.3C147.776 38.14 147.488 38.848 146.912 39.424C146.336 39.976 145.604 40.252 144.716 40.252Z" fill="#F25C04"/>
</svg>
